<svg width="16.000000" height="16.000000" viewBox="0 0 16 16" fill="none" xmlns="http://www.w3.org/2000/svg" xmlns:xlink="http://www.w3.org/1999/xlink">
	<desc>
			Created with Pixso.
	</desc>
	<g clip-path="url(#clip11_2018)">
		<path id="path" d="M0 8C0 8.26172 0.0117188 8.52344 0.0390625 8.7832C0.0625 9.04492 0.101562 9.30469 0.152344 9.56055C0.203125 9.81836 0.269531 10.0723 0.34375 10.3223C0.421875 10.5723 0.507812 10.8203 0.609375 11.0605C0.710938 11.3027 0.820312 11.541 0.945312 11.7715C1.06641 12.002 1.20312 12.2266 1.34766 12.4453C1.49219 12.6621 1.64844 12.873 1.81641 13.0742C1.98047 13.2773 2.15625 13.4707 2.34375 13.6562C2.52734 13.8418 2.72266 14.0176 2.92578 14.1836C3.12891 14.3496 3.33594 14.5059 3.55469 14.6523C3.77344 14.7969 3.99609 14.9316 4.23047 15.0547C4.46094 15.1797 4.69531 15.291 4.9375 15.3906C5.17969 15.4922 5.42578 15.5801 5.67578 15.6562C5.92969 15.7324 6.18359 15.7949 6.4375 15.8457C6.69531 15.8965 6.95703 15.9355 7.21484 15.9609C7.47656 15.9863 7.73828 16 8 16C8.26172 16 8.52344 15.9863 8.78516 15.9609C9.04297 15.9355 9.30469 15.8965 9.5625 15.8457C9.81641 15.7949 10.0703 15.7324 10.3242 15.6562C10.5742 15.5801 10.8203 15.4922 11.0625 15.3906C11.3047 15.291 11.5391 15.1797 11.7695 15.0547C12.0039 14.9316 12.2266 14.7969 12.4453 14.6523C12.6641 14.5059 12.8711 14.3496 13.0742 14.1836C13.2773 14.0176 13.4727 13.8418 13.6562 13.6562C13.8438 13.4707 14.0195 13.2773 14.1836 13.0742C14.3516 12.873 14.5078 12.6621 14.6523 12.4453C14.7969 12.2266 14.9336 12.002 15.0547 11.7715C15.1797 11.541 15.2891 11.3027 15.3906 11.0605C15.4922 10.8203 15.5781 10.5723 15.6562 10.3223C15.7305 10.0723 15.7969 9.81836 15.8477 9.56055C15.8984 9.30469 15.9375 9.04492 15.9609 8.7832C15.9883 8.52344 16 8.26172 16 8C16 7.73828 15.9883 7.47656 15.9609 7.2168C15.9375 6.95508 15.8984 6.69531 15.8477 6.43945C15.7969 6.18164 15.7305 5.92773 15.6562 5.67773C15.5781 5.42773 15.4922 5.17969 15.3906 4.93945C15.2891 4.69727 15.1797 4.45898 15.0547 4.22852C14.9336 3.99805 14.7969 3.77344 14.6523 3.55469C14.5078 3.33789 14.3516 3.12695 14.1836 2.92578C14.0195 2.72266 13.8438 2.5293 13.6562 2.34375C13.4727 2.1582 13.2773 1.98242 13.0742 1.81641C12.8711 1.65039 12.6641 1.49414 12.4453 1.34766C12.2266 1.20312 12.0039 1.06836 11.7695 0.945312C11.5391 0.820312 11.3047 0.708984 11.0625 0.609375C10.8203 0.507812 10.5742 0.419922 10.3242 0.34375C10.0703 0.267578 9.81641 0.205078 9.5625 0.154297C9.30469 0.103516 9.04297 0.0644531 8.78516 0.0390625C8.52344 0.0136719 8.26172 0 8 0C7.73828 0 7.47656 0.0136719 7.21484 0.0390625C6.95703 0.0644531 6.69531 0.103516 6.4375 0.154297C6.18359 0.205078 5.92969 0.267578 5.67578 0.34375C5.42578 0.419922 5.17969 0.507812 4.9375 0.609375C4.69531 0.708984 4.46094 0.820312 4.23047 0.945312C3.99609 1.06836 3.77344 1.20312 3.55469 1.34766C3.33594 1.49414 3.12891 1.65039 2.92578 1.81641C2.72266 1.98242 2.52734 2.1582 2.34375 2.34375C2.15625 2.5293 1.98047 2.72266 1.81641 2.92578C1.64844 3.12695 1.49219 3.33789 1.34766 3.55469C1.20312 3.77344 1.06641 3.99805 0.945312 4.22852C0.820312 4.45898 0.710938 4.69727 0.609375 4.93945C0.507812 5.17969 0.421875 5.42773 0.34375 5.67773C0.269531 5.92773 0.203125 6.18164 0.152344 6.43945C0.101562 6.69531 0.0625 6.95508 0.0390625 7.2168C0.0117188 7.47656 0 7.73828 0 8Z" fill-rule="nonzero" fill="#F5F5F5"/>
		<path id="path" d="M5.70703 8.46094C5.79688 8.51953 5.89453 8.57031 5.99609 8.61133C6.09375 8.65234 6.19922 8.68164 6.30469 8.70312C6.41016 8.72266 6.51953 8.73438 6.625 8.73242C6.73438 8.73242 6.83984 8.72266 6.94922 8.70117C7.05469 8.67969 7.15625 8.64844 7.25781 8.60742C7.35547 8.56445 7.45312 8.51367 7.54297 8.45508C7.63281 8.39453 7.71484 8.32617 7.79297 8.25C7.86719 8.17383 7.9375 8.08984 7.99609 8C8.05469 7.91211 8.12109 7.83203 8.19531 7.75586C8.26953 7.68164 8.34766 7.61328 8.4375 7.55469C8.52344 7.49414 8.61328 7.44336 8.71094 7.40234C8.80469 7.35938 8.90625 7.32617 9.00781 7.30469C9.10938 7.28125 9.21484 7.26758 9.32031 7.26367C9.42188 7.25977 9.52734 7.26758 9.63281 7.2832C9.73438 7.29883 9.83594 7.32617 9.93359 7.36133C10.0352 7.39844 10.1289 7.44141 10.2188 7.49609C10.3086 7.55078 10.3945 7.61133 10.4727 7.68164C10.5508 7.75195 10.6211 7.82812 10.6836 7.91211C10.7461 7.99609 10.8047 8.08398 10.8516 8.17773C10.8984 8.27148 10.9336 8.36914 10.9609 8.4707C10.9922 8.57227 11.0078 8.67578 11.0156 8.7793C11.0273 8.88477 11.0234 8.98828 11.0117 9.09375C11 9.19727 10.9805 9.30078 10.9492 9.40039C10.918 9.5 10.8789 9.59766 10.8281 9.68945C10.9375 9.50781 11.0273 9.31445 11.0977 9.11523C11.168 8.91406 11.2227 8.70898 11.2539 8.49805C11.2852 8.28711 11.2969 8.07617 11.2852 7.86328C11.2773 7.65039 11.2461 7.44141 11.1992 7.23438C11.1484 7.02734 11.0781 6.82617 10.9883 6.63281C10.9023 6.43945 10.7969 6.25586 10.6719 6.08398C10.5469 5.91016 10.4062 5.75195 10.2539 5.60547C10.0977 5.45898 9.92969 5.33008 9.75 5.2168C9.57031 5.10156 9.37891 5.00781 9.18359 4.92969C8.98438 4.85352 8.78125 4.79688 8.57031 4.75781C8.35938 4.7207 8.14844 4.70312 7.9375 4.70703C7.72266 4.71094 7.51172 4.73438 7.30469 4.7793C7.09766 4.82227 6.89453 4.88672 6.69922 4.9707C6.50391 5.05273 6.31641 5.1543 6.14062 5.27344C5.96484 5.39258 5.80078 5.52734 5.65234 5.67773C5.5 5.83008 5.36719 5.99219 5.24609 6.16992C5.24609 6.16992 5.24609 6.26953 5.16797 6.31055C5.07422 6.49023 5.01172 6.68359 4.98828 6.88672C4.96484 7.08984 4.97656 7.28906 5.02734 7.48828C5.07812 7.6875 5.16016 7.86914 5.27734 8.03711C5.39453 8.20508 5.53906 8.3457 5.70703 8.46094Z" fill-rule="nonzero" fill="#ED4C5C"/>
		<path id="path" d="M10.75 9.83008L10.8281 9.68945C10.8281 9.68945 10.7812 9.7793 10.75 9.83008Z" fill-rule="nonzero" fill="#003478"/>
		<path id="path" d="M10.2891 7.54102C10.1992 7.48047 10.1016 7.43164 10.0039 7.39062C9.90234 7.34961 9.79688 7.31836 9.69141 7.29688C9.58594 7.27734 9.48047 7.26758 9.37109 7.26758C9.26172 7.26758 9.15625 7.27734 9.05078 7.29883C8.94141 7.32031 8.83984 7.35156 8.73828 7.39453C8.64062 7.43555 8.54297 7.48633 8.45312 7.54688C8.36328 7.60547 8.28125 7.67383 8.20312 7.75195C8.12891 7.82812 8.05859 7.91016 8 8C7.94141 8.08789 7.875 8.16992 7.80078 8.24414C7.72656 8.31836 7.64844 8.38672 7.5625 8.44531C7.47266 8.50586 7.38281 8.55664 7.28516 8.59961C7.19141 8.64062 7.08984 8.67383 6.98828 8.69727C6.88672 8.7207 6.78125 8.73242 6.67969 8.73633C6.57422 8.74023 6.46875 8.73438 6.36328 8.7168C6.26172 8.70117 6.16016 8.67383 6.0625 8.63867C5.96094 8.60352 5.86719 8.55859 5.77734 8.50391C5.6875 8.45117 5.60547 8.38867 5.52344 8.31836C5.44531 8.24805 5.375 8.17188 5.3125 8.08789C5.25 8.00586 5.19141 7.91602 5.14453 7.82227C5.10156 7.72852 5.0625 7.63086 5.03516 7.5293C5.00781 7.42773 4.98828 7.32617 4.98047 7.2207C4.97266 7.11523 4.97266 7.01172 4.98438 6.90625C4.99609 6.80273 5.01562 6.70117 5.04688 6.59961C5.07812 6.5 5.11719 6.40234 5.16797 6.31055C5.05859 6.49414 4.96875 6.68555 4.89844 6.88672C4.82812 7.08594 4.77734 7.29102 4.74219 7.50195C4.71094 7.71289 4.69922 7.92383 4.71094 8.13672C4.71875 8.34961 4.75 8.55859 4.80078 8.76562C4.84766 8.97266 4.91797 9.17383 5.00781 9.36719C5.09375 9.56055 5.20312 9.74414 5.32422 9.91602C5.44922 10.0898 5.58984 10.25 5.74219 10.3945C5.89844 10.541 6.06641 10.6719 6.24609 10.7852C6.42578 10.8984 6.61719 10.9941 6.8125 11.0703C7.01172 11.1465 7.21484 11.2051 7.42578 11.2422C7.63672 11.2793 7.84766 11.2969 8.05859 11.293C8.27344 11.2891 8.48438 11.2656 8.69141 11.2227C8.89844 11.1777 9.10156 11.1133 9.29688 11.0312C9.49219 10.9473 9.67969 10.8457 9.85547 10.7266C10.0312 10.6074 10.1953 10.4727 10.3438 10.3223C10.4961 10.1719 10.6289 10.0078 10.75 9.83008C10.75 9.78125 10.7969 9.73047 10.8281 9.69141C10.9219 9.50977 10.9844 9.31836 11.0078 9.11523C11.0312 8.91211 11.0195 8.71094 10.9688 8.51172C10.9219 8.31445 10.8359 8.13086 10.7188 7.96289C10.6016 7.79688 10.457 7.6543 10.2891 7.54102Z" fill-rule="nonzero" fill="#428BC1"/>
		<path id="path" d="M1.55078 5.67969L3.37891 2.93945L3.19141 2.80859L3.00781 2.68945L1.17969 5.43945L1.35938 5.55859L1.55078 5.67969ZM2.05078 6.01953L2.23047 6.13867L4.07031 3.38867L3.87891 3.26953L3.69922 3.15039L1.87109 5.88867L2.05078 6.01953ZM4.37891 3.60938L2.55078 6.34961L2.73828 6.46875L2.91797 6.59961L4.75 3.84961L4.57031 3.72852L4.37891 3.60938ZM12.4102 10.8086L12.5898 10.9297L13.4492 9.65039L13.2578 9.5293L13.0781 9.40039L12.2188 10.6797L12.4102 10.8086ZM14.4492 10.3203L13.6016 11.5996L13.7812 11.7188L13.9688 11.8496L14.8203 10.5586L14.6406 10.4395L14.4492 10.3203ZM13.2812 11.3887L14.1289 10.1094L13.9492 9.97852L13.7695 9.85938L12.9102 11.1387L13.1016 11.2598L13.2812 11.3887ZM12.2891 10.9902L12.1016 10.8691L11.25 12.1504L11.4297 12.2695L11.6211 12.3887L12.4688 11.1094L12.2891 10.9902ZM12.9688 11.4492L12.7891 11.3301L11.9414 12.6094L12.1211 12.7285L12.3008 12.8496L13.1602 11.5703L12.9688 11.4492ZM13.4688 11.7793L12.6211 13.0586L12.8008 13.1895L12.9883 13.3086L13.8398 12.0293L13.6602 11.9102L13.4688 11.7793ZM1.35938 10.4395L1.17969 10.5586L3.00781 13.3086L3.19141 13.1895L3.37891 13.0586L1.55078 10.3203L1.35938 10.4395ZM3.03125 11.4492L2.83984 11.5703L3.69922 12.8496L3.87891 12.7285L4.07031 12.6094L3.21094 11.3301L3.03125 11.4492ZM2.73828 9.5293L2.55078 9.65039L4.37891 12.3887L4.57031 12.2695L4.75 12.1504L2.91797 9.40039L2.73828 9.5293ZM1.87109 10.1094L2.71875 11.3887L2.89844 11.2598L3.08984 11.1387L2.23047 9.85938L2.05078 9.97852L1.87109 10.1094ZM13.6602 4.08984L13.8398 3.96875L12.9883 2.68945L12.8008 2.80859L12.6211 2.93945L13.4688 4.21875L13.6602 4.08984ZM12.2891 5.00977L12.4688 4.88867L11.6211 3.60938L11.4297 3.72852L11.25 3.84961L12.1016 5.12891L12.2891 5.00977ZM13.6016 4.40039L14.4492 5.67969L14.6406 5.55859L14.8203 5.43945L13.9688 4.16016L13.7812 4.2793L13.6016 4.40039ZM13.9492 6.01953L14.1289 5.88867L12.3008 3.15039L12.1211 3.26953L11.9414 3.38867L13.7695 6.13867L13.9492 6.01953ZM13.2578 6.46875L13.4492 6.34961L12.5898 5.07031L12.4102 5.18945L12.2188 5.32031L13.0781 6.59961L13.2578 6.46875Z" fill-rule="nonzero" fill="#3E4347"/>
	</g>
	<defs>
		<clipPath id="clip11_2018">
			<rect id="svg韩国" width="16.000000" height="16.000000" fill="white"/>
		</clipPath>
	</defs>
</svg>
