<svg width="16.000000" height="16.000000" viewBox="0 0 16 16" fill="none" xmlns="http://www.w3.org/2000/svg" xmlns:xlink="http://www.w3.org/1999/xlink">
	<desc>
			Created with Pixso.
	</desc>
	<g clip-path="url(#clip11_2031)">
		<mask id="mask11_2026" mask-type="alpha" maskUnits="userSpaceOnUse" x="0.000000" y="0.000000" width="16.000000" height="16.000000">
			<path id="path" d="M0 8C0 8.26172 0.0117188 8.52344 0.0390625 8.7832C0.0625 9.04492 0.101562 9.30469 0.152344 9.56055C0.203125 9.81836 0.269531 10.0723 0.34375 10.3223C0.421875 10.5723 0.507812 10.8203 0.609375 11.0605C0.710938 11.3027 0.820312 11.541 0.945312 11.7715C1.06641 12.002 1.20312 12.2266 1.34766 12.4453C1.49219 12.6621 1.64844 12.873 1.81641 13.0742C1.98047 13.2773 2.15625 13.4707 2.34375 13.6562C2.52734 13.8418 2.72266 14.0176 2.92578 14.1836C3.12891 14.3496 3.33594 14.5059 3.55469 14.6523C3.77344 14.7969 3.99609 14.9316 4.23047 15.0547C4.46094 15.1797 4.69531 15.291 4.9375 15.3906C5.17969 15.4922 5.42578 15.5801 5.67578 15.6562C5.92969 15.7324 6.18359 15.7949 6.4375 15.8457C6.69531 15.8965 6.95703 15.9355 7.21484 15.9609C7.47656 15.9863 7.73828 16 8 16C8.26172 16 8.52344 15.9863 8.78516 15.9609C9.04297 15.9355 9.30469 15.8965 9.5625 15.8457C9.81641 15.7949 10.0703 15.7324 10.3242 15.6562C10.5742 15.5801 10.8203 15.4922 11.0625 15.3906C11.3047 15.291 11.5391 15.1797 11.7695 15.0547C12.0039 14.9316 12.2266 14.7969 12.4453 14.6523C12.6641 14.5059 12.8711 14.3496 13.0742 14.1836C13.2773 14.0176 13.4727 13.8418 13.6562 13.6562C13.8438 13.4707 14.0195 13.2773 14.1836 13.0742C14.3516 12.873 14.5078 12.6621 14.6523 12.4453C14.7969 12.2266 14.9336 12.002 15.0547 11.7715C15.1797 11.541 15.2891 11.3027 15.3906 11.0605C15.4922 10.8203 15.5781 10.5723 15.6562 10.3223C15.7305 10.0723 15.7969 9.81836 15.8477 9.56055C15.8984 9.30469 15.9375 9.04492 15.9609 8.7832C15.9883 8.52344 16 8.26172 16 8C16 7.73828 15.9883 7.47656 15.9609 7.2168C15.9375 6.95508 15.8984 6.69531 15.8477 6.43945C15.7969 6.18164 15.7305 5.92773 15.6562 5.67773C15.5781 5.42773 15.4922 5.17969 15.3906 4.93945C15.2891 4.69727 15.1797 4.45898 15.0547 4.22852C14.9336 3.99805 14.7969 3.77344 14.6523 3.55469C14.5078 3.33789 14.3516 3.12695 14.1836 2.92578C14.0195 2.72266 13.8438 2.5293 13.6562 2.34375C13.4727 2.1582 13.2773 1.98242 13.0742 1.81641C12.8711 1.65039 12.6641 1.49414 12.4453 1.34766C12.2266 1.20312 12.0039 1.06836 11.7695 0.945312C11.5391 0.820312 11.3047 0.708984 11.0625 0.609375C10.8203 0.507812 10.5742 0.419922 10.3242 0.34375C10.0703 0.267578 9.81641 0.205078 9.5625 0.154297C9.30469 0.103516 9.04297 0.0644531 8.78516 0.0390625C8.52344 0.0136719 8.26172 0 8 0C7.73828 0 7.47656 0.0136719 7.21484 0.0390625C6.95703 0.0644531 6.69531 0.103516 6.4375 0.154297C6.18359 0.205078 5.92969 0.267578 5.67578 0.34375C5.42578 0.419922 5.17969 0.507812 4.9375 0.609375C4.69531 0.708984 4.46094 0.820312 4.23047 0.945312C3.99609 1.06836 3.77344 1.20312 3.55469 1.34766C3.33594 1.49414 3.12891 1.65039 2.92578 1.81641C2.72266 1.98242 2.52734 2.1582 2.34375 2.34375C2.15625 2.5293 1.98047 2.72266 1.81641 2.92578C1.64844 3.12695 1.49219 3.33789 1.34766 3.55469C1.20312 3.77344 1.06641 3.99805 0.945312 4.22852C0.820312 4.45898 0.710938 4.69727 0.609375 4.93945C0.507812 5.17969 0.421875 5.42773 0.34375 5.67773C0.269531 5.92773 0.203125 6.18164 0.152344 6.43945C0.101562 6.69531 0.0625 6.95508 0.0390625 7.2168C0.0117188 7.47656 0 7.73828 0 8Z" fill-rule="nonzero" fill="#F5F5F5"/>
		</mask>
		<g mask="url(#mask11_2026)">
			<path id="path" d="M-2 0L28 0L28 19L-2 19L-2 0Z" fill-rule="nonzero" fill="#F40002"/>
		</g>
		<g mask="url(#mask11_2026)">
			<path id="path" d="M4.38281 3.79102L4.94141 5.43945L6.76953 5.42969L5.28516 6.43945L5.85938 8.08398L4.38281 7.05859L2.91016 8.08398L3.48438 6.43945L2 5.42969L3.82812 5.43945L4.38281 3.79102ZM8.01172 3.20117L8.5625 3.43164L8.95703 3L8.89844 3.56836L9.45312 3.79102L8.86719 3.91406L8.8125 4.48438L8.50781 3.99219L7.91797 4.11914L8.32031 3.69141L8.01172 3.20117ZM9.87109 4.6543L10.2734 5.08398L10.8242 4.84961L10.5156 5.3418L10.9219 5.76562L10.332 5.64258L10.0312 6.13867L9.97266 5.57031L9.38281 5.45117L9.9375 5.22266L9.87109 4.6543ZM10.2188 6.94141L10.3945 7.49023L11 7.49219L10.5039 7.82227L10.6875 8.36523L10.207 8.02148L9.71484 8.35742L9.91016 7.81641L9.42188 7.47656L10.0273 7.48438L10.2188 6.94141ZM7.92578 8.79883L8.5 8.97461L8.84375 8.50781L8.84766 9.08008L9.42578 9.25L8.85156 9.42578L8.85938 10L8.5 9.53711L7.92969 9.71875L8.28516 9.25586L7.92578 8.79883Z" fill-rule="nonzero" fill="#FCEE21"/>
		</g>
	</g>
	<defs>
		<clipPath id="clip11_2031">
			<rect id="svg中国" width="16.000000" height="16.000000" fill="white"/>
		</clipPath>
	</defs>
</svg>
