<svg width="18.000000" height="18.000000" viewBox="0 0 18 18" fill="none" xmlns="http://www.w3.org/2000/svg" xmlns:xlink="http://www.w3.org/1999/xlink">
	<desc>
			Created with Pixso.
	</desc>
	<g clip-path="url(#clip11_2007)">
		<path id="path" d="M16.8555 8.63281C16.8555 13.0273 13.2734 16.6094 8.875 16.6094C4.48047 16.6094 0.898438 13.0273 0.898438 8.63281C0.898438 4.23633 4.48047 0.654297 8.875 0.654297C13.2734 0.572266 16.8555 4.23633 16.8555 8.63281Z" fill-rule="evenodd" fill="#FAFAFA"/>
		<path id="path" d="M8.91797 0.572266C4.41797 0.572266 0.816406 4.17188 0.816406 8.58984L0.816406 9.24414L8.83594 9.24414L8.83594 0.572266L8.91797 0.572266Z" fill-rule="nonzero" fill="#233CAF"/>
		<path id="path" d="M6.625 4.17383L6.54297 4.5L6.78906 4.33789L7.03516 4.5L6.95312 4.17383L7.19922 3.92773L6.87109 3.8457L6.70703 3.60156L6.54297 3.8457L6.21484 3.92773L6.625 4.17383ZM6.95312 2.20898L6.78906 1.96484L6.625 2.20898L6.29688 2.29102L6.54297 2.53711L6.46094 2.86523L6.70703 2.70117L6.95312 2.86523L6.87109 2.53711L7.11719 2.29102L6.95312 2.20898ZM1.87891 8.3457L1.71484 8.10156L1.55469 8.3457L1.22656 8.42773L1.47266 8.67383L1.39062 9L1.63672 8.83789L1.87891 9L1.79688 8.67383L2.04297 8.42773L1.87891 8.3457ZM0.980469 7.69141L1.22656 7.44531L0.980469 7.44531C0.980469 7.60938 0.898438 7.77344 0.898438 7.9375L1.0625 8.01953L0.980469 7.69141ZM6.625 5.97266L6.54297 6.30078L6.78906 6.13672L7.03516 6.30078L6.95312 5.97266L7.19922 5.72852L6.87109 5.64648L6.70703 5.40039L6.54297 5.64648L6.21484 5.72852L6.625 5.97266ZM1.96094 5.40039L1.87891 5.07422L2.125 4.82812L1.79688 4.74609L1.79688 4.66406C1.71484 4.82812 1.63672 4.99219 1.55469 5.23633L1.71484 5.15625L1.96094 5.40039ZM1.87891 6.54688L1.71484 6.30078L1.55469 6.54688L1.22656 6.62891L1.47266 6.87305L1.39062 7.20117L1.63672 7.03711L1.87891 7.20117L1.79688 6.87305L2.04297 6.62891L1.87891 6.54688ZM6.625 7.69141L6.54297 8.01953L6.78906 7.85547L7.03516 8.01953L6.95312 7.69141L7.19922 7.44531L6.87109 7.36523L6.70703 7.11914L6.54297 7.36523L6.21484 7.44531L6.625 7.69141ZM7.76953 1.06445L7.60938 1.31055L7.28125 1.39258L7.52734 1.63672L7.44531 1.96484L7.6875 1.80078L7.93359 1.96484L7.85156 1.63672L8.09766 1.39258L7.76953 1.31055L7.76953 1.06445ZM5.64453 1.31055L5.5625 1.31055C5.48047 1.31055 5.48047 1.31055 5.39844 1.39258L5.5625 1.55469L5.48047 1.88281L5.72656 1.71875L5.97266 1.88281L5.89062 1.55469L6.13672 1.31055L5.80859 1.22852L5.72656 1.06445C5.80859 1.22852 5.72656 1.22852 5.64453 1.31055ZM7.60938 8.5918L7.52734 8.91992L7.76953 8.75586L8.01562 8.91992L7.93359 8.5918L8.17969 8.3457L7.85156 8.26367L7.6875 8.01953L7.52734 8.26367L7.19922 8.3457L7.60938 8.5918ZM7.60938 6.79102L7.52734 7.11914L7.76953 6.95508L8.01562 7.11914L7.93359 6.79102L8.17969 6.54688L7.85156 6.46484L7.6875 6.21875L7.52734 6.46484L7.19922 6.54688L7.60938 6.79102ZM7.93359 3.10938L7.76953 2.86523L7.60938 3.10938L7.28125 3.19141L7.52734 3.4375L7.44531 3.76367L7.6875 3.60156L7.93359 3.76367L7.85156 3.4375L8.09766 3.19141L7.93359 3.10938ZM7.60938 5.07422L7.52734 5.40039L7.76953 5.23633L8.01562 5.40039L7.93359 5.07422L8.17969 4.82812L7.85156 4.74609L7.6875 4.5L7.52734 4.74609L7.19922 4.82812L7.60938 5.07422ZM2.86328 3.92773L2.69922 3.68359L2.53516 3.92773L2.20703 4.00977L2.45312 4.25586L2.37109 4.58203L2.61719 4.41992L2.86328 4.58203L2.78125 4.25586L3.02734 4.00977L2.86328 3.92773ZM4.90625 7.44531L4.74219 7.20117L4.58203 7.44531L4.25391 7.52734L4.5 7.77344L4.41797 8.10156L4.66016 7.9375L4.90625 8.10156L4.82422 7.77344L5.07031 7.52734L4.90625 7.44531ZM4.90625 5.72852L4.74219 5.48242L4.58203 5.72852L4.25391 5.81055L4.5 6.05469L4.41797 6.38281L4.66016 6.21875L4.90625 6.38281L4.82422 6.05469L5.07031 5.81055L4.90625 5.72852ZM5.89062 4.82812L5.72656 4.58203L5.5625 4.82812L5.23438 4.91016L5.48047 5.15625L5.39844 5.48242L5.64453 5.31836L5.89062 5.48242L5.80859 5.15625L6.05469 4.91016L5.89062 4.82812ZM2.86328 7.44531L2.69922 7.20117L2.53516 7.44531L2.20703 7.52734L2.45312 7.77344L2.37109 8.10156L2.61719 7.9375L2.86328 8.10156L2.78125 7.77344L3.02734 7.52734L2.86328 7.44531ZM5.89062 6.54688L5.72656 6.30078L5.5625 6.54688L5.23438 6.62891L5.48047 6.87305L5.39844 7.20117L5.64453 7.03711L5.89062 7.20117L5.80859 6.87305L6.05469 6.62891L5.89062 6.54688ZM5.89062 8.3457L5.72656 8.10156L5.5625 8.3457L5.23438 8.42773L5.48047 8.67383L5.39844 9L5.64453 8.83789L5.89062 9L5.80859 8.67383L6.05469 8.42773L5.89062 8.3457ZM5.89062 3.10938L5.72656 2.86523L5.5625 3.10938L5.23438 3.19141L5.48047 3.4375L5.39844 3.76367L5.64453 3.60156L5.89062 3.76367L5.80859 3.4375L6.05469 3.19141L5.89062 3.10938ZM3.84375 3.10938L3.67969 2.86523L3.51562 3.10938L3.1875 3.19141L3.43359 3.4375L3.35156 3.76367L3.59766 3.60156L3.84375 3.76367L3.76172 3.4375L4.00781 3.19141L3.84375 3.10938ZM2.86328 5.72852L2.69922 5.48242L2.53516 5.72852L2.20703 5.81055L2.45312 6.05469L2.37109 6.38281L2.61719 6.21875L2.86328 6.38281L2.78125 6.05469L3.02734 5.81055L2.86328 5.72852ZM3.84375 4.82812L3.67969 4.58203L3.51562 4.82812L3.1875 4.91016L3.43359 5.15625L3.35156 5.48242L3.59766 5.31836L3.84375 5.48242L3.76172 5.15625L4.00781 4.91016L3.84375 4.82812ZM3.84375 6.54688L3.67969 6.30078L3.51562 6.54688L3.1875 6.62891L3.43359 6.87305L3.35156 7.20117L3.59766 7.03711L3.84375 7.20117L3.76172 6.87305L4.00781 6.62891L3.84375 6.54688ZM4.90625 2.20898L4.74219 1.96484L4.58203 2.20898L4.25391 2.29102L4.5 2.53711L4.41797 2.86523L4.66016 2.70117L4.90625 2.86523L4.82422 2.53711L5.07031 2.29102L4.90625 2.20898ZM4.90625 3.92773L4.74219 3.68359L4.58203 3.92773L4.25391 4.00977L4.5 4.25586L4.41797 4.58203L4.66016 4.41992L4.90625 4.58203L4.82422 4.25586L5.07031 4.00977L4.90625 3.92773ZM4.17188 8.3457L3.92578 8.5918L4.00781 8.91992L3.76172 8.75586L3.51562 8.91992L3.59766 8.5918L3.35156 8.3457L3.67969 8.26367L3.84375 8.01953L4.00781 8.26367L4.17188 8.3457Z" fill-rule="nonzero" fill="#FAFAFA"/>
		<path id="path" d="M3.10938 14.2363L14.7266 14.2363C15.1367 13.8262 15.4609 13.418 15.707 12.9277L2.125 12.9277C2.37109 13.418 2.69922 13.8262 3.10938 14.2363ZM8.83594 16.6914C10.4727 16.6914 11.9453 16.1992 13.1719 15.3809L4.5 15.3809C5.80859 16.1992 7.28125 16.6914 8.83594 16.6914ZM16.8516 8.01758L8.83594 8.01758L8.83594 9.32617L16.8516 9.32617L16.8516 8.67188C16.9336 8.42773 16.9336 8.26367 16.8516 8.01758ZM1.47266 11.7812L16.3633 11.7812C16.5273 11.373 16.6914 10.9629 16.7734 10.4727L1.0625 10.4727C1.14453 10.9629 1.30859 11.373 1.47266 11.7812ZM8.91797 4.33594L15.707 4.33594C15.3789 3.8457 15.0547 3.43555 14.7266 3.02734L8.91797 3.02734L8.91797 4.33594ZM8.91797 6.79102L16.7734 6.79102C16.6914 6.38086 16.5273 5.89062 16.3633 5.48047L8.91797 5.48047L8.91797 6.79102ZM8.91797 1.88086L13.2539 1.88086C12.0273 1.0625 10.5547 0.572266 8.91797 0.572266L8.91797 1.88086Z" fill-rule="nonzero" fill="#EB0000"/>
	</g>
	<defs>
		<clipPath id="clip11_2007">
			<rect id="svg美国" width="18.000000" height="18.000000" fill="white"/>
		</clipPath>
	</defs>
</svg>
