<svg width="28.000000" height="28.000000" viewBox="0 0 28 28" fill="none" xmlns="http://www.w3.org/2000/svg" xmlns:xlink="http://www.w3.org/1999/xlink">
	<desc>
			Created with Pixso.
	</desc>
	<g opacity="0.100000">
		<circle id="椭圆形" cx="14.000000" cy="14.000000" r="14.000000" fill="#3B6CFE"/>
	</g>
	<g clip-path="url(#clip10_1031)">
		<path id="path" d="M14 5C13.707 5 13.4102 5.01367 13.1172 5.04297C12.8242 5.07227 12.5352 5.11523 12.2461 5.17383C11.957 5.23047 11.668 5.30273 11.3867 5.38672C11.1055 5.47266 10.8281 5.57227 10.5547 5.68555C10.2852 5.79883 10.0156 5.92383 9.75781 6.0625C9.49609 6.20117 9.24609 6.35352 9 6.51758C8.75391 6.67969 8.51953 6.85547 8.28906 7.04297C8.0625 7.23047 7.84375 7.42773 7.63672 7.63672C7.42578 7.84375 7.23047 8.0625 7.04297 8.29102C6.85547 8.51758 6.67969 8.75391 6.51562 9C6.35156 9.24414 6.20312 9.49805 6.0625 9.75781C5.92188 10.0176 5.79688 10.2832 5.68359 10.5566C5.57422 10.8281 5.47266 11.1055 5.38672 11.3867C5.30078 11.6699 5.23047 11.9551 5.17188 12.2441C5.11719 12.5332 5.07031 12.8242 5.04297 13.1172C5.01562 13.4121 5 13.7051 5 14C5 14.2949 5.01562 14.5879 5.04297 14.8828C5.07031 15.1758 5.11719 15.4668 5.17188 15.7559C5.23047 16.0449 5.30078 16.3301 5.38672 16.6133C5.47266 16.8945 5.57422 17.1719 5.68359 17.4434C5.79688 17.7168 5.92188 17.9824 6.0625 18.2422C6.20312 18.502 6.35156 18.7559 6.51562 19C6.67969 19.2461 6.85547 19.4824 7.04297 19.709C7.23047 19.9375 7.42578 20.1562 7.63672 20.3633C7.84375 20.5723 8.0625 20.7695 8.28906 20.957C8.51953 21.1445 8.75391 21.3203 9 21.4824C9.24609 21.6465 9.49609 21.7988 9.75781 21.9375C10.0156 22.0762 10.2852 22.2012 10.5547 22.3145C10.8281 22.4277 11.1055 22.5273 11.3867 22.6133C11.668 22.6973 11.957 22.7695 12.2461 22.8262C12.5352 22.8848 12.8242 22.9277 13.1172 22.957C13.4102 22.9863 13.707 23 14 23C14.293 23 14.5898 22.9863 14.8828 22.957C15.1758 22.9277 15.4648 22.8848 15.7539 22.8262C16.043 22.7695 16.332 22.6973 16.6133 22.6133C16.8945 22.5273 17.1719 22.4277 17.4453 22.3145C17.7148 22.2012 17.9844 22.0762 18.2422 21.9375C18.5039 21.7988 18.7539 21.6465 19 21.4824C19.2461 21.3203 19.4805 21.1445 19.7109 20.957C19.9375 20.7695 20.1562 20.5723 20.3633 20.3633C20.5742 20.1562 20.7695 19.9375 20.957 19.709C21.1445 19.4824 21.3203 19.2461 21.4844 19C21.6484 18.7559 21.7969 18.502 21.9375 18.2422C22.0781 17.9824 22.2031 17.7168 22.3164 17.4434C22.4258 17.1719 22.5273 16.8945 22.6133 16.6133C22.6992 16.3301 22.7695 16.0449 22.8281 15.7559C22.8828 15.4668 22.9297 15.1758 22.957 14.8828C22.9844 14.5879 23 14.2949 23 14C23 13.7051 22.9844 13.4121 22.957 13.1172C22.9297 12.8242 22.8828 12.5332 22.8281 12.2441C22.7695 11.9551 22.6992 11.6699 22.6133 11.3867C22.5273 11.1055 22.4258 10.8281 22.3164 10.5566C22.2031 10.2832 22.0781 10.0176 21.9375 9.75781C21.7969 9.49805 21.6484 9.24414 21.4844 9C21.3203 8.75391 21.1445 8.51758 20.957 8.29102C20.7695 8.0625 20.5742 7.84375 20.3633 7.63672C20.1562 7.42773 19.9375 7.23047 19.7109 7.04297C19.4805 6.85547 19.2461 6.67969 19 6.51758C18.7539 6.35352 18.5039 6.20117 18.2422 6.0625C17.9844 5.92383 17.7148 5.79883 17.4453 5.68555C17.1719 5.57227 16.8945 5.47266 16.6133 5.38672C16.332 5.30273 16.043 5.23047 15.7539 5.17383C15.4648 5.11523 15.1758 5.07227 14.8828 5.04297C14.5898 5.01367 14.293 5 14 5ZM20.875 11C21.2773 11.918 21.5 12.9336 21.5 14C21.5 15.0684 21.2773 16.082 20.875 17.002L17.4922 17.002C17.6602 16.0703 17.75 15.0586 17.75 14C17.75 12.9434 17.6602 11.9316 17.4922 11L20.875 11ZM11.75 14C11.75 12.9238 11.8359 11.9043 11.9844 11L16.0156 11C16.1641 11.9043 16.25 12.9238 16.25 14C16.25 15.0781 16.1641 16.0977 16.0156 17.002L11.9844 17.002C11.8359 16.0977 11.75 15.0781 11.75 14ZM20 9.5L17.1445 9.5C16.7969 8.33008 16.3164 7.36523 15.7539 6.70703C16.6016 6.91211 17.3906 7.25391 18.1211 7.73438C18.8516 8.21289 19.4766 8.80273 20 9.5ZM14 7.25195C14.6641 7.25195 15.2656 8.12109 15.6758 9.50195L12.3242 9.50195C12.7344 8.12109 13.3359 7.25195 14 7.25195ZM12.2461 6.70898C11.6836 7.36523 11.2031 8.33203 10.8555 9.50195L8 9.50195C8.52344 8.80469 9.15234 8.21484 9.87891 7.73438C10.6094 7.25586 11.3984 6.91406 12.2461 6.70898ZM7.125 11L10.5078 11C10.3398 11.9316 10.25 12.9434 10.25 14C10.25 15.0586 10.3398 16.0703 10.5078 17.002L7.125 17.002C6.70703 16.0449 6.5 15.0449 6.5 14C6.5 12.9336 6.72266 11.918 7.125 11ZM8 18.502L10.8555 18.502C11.2031 19.6719 11.6836 20.6348 12.2461 21.293C11.3984 21.0898 10.6094 20.748 9.87891 20.2676C9.14844 19.7891 8.52344 19.1992 8 18.502ZM14 20.75C13.3359 20.75 12.7344 19.8789 12.3242 18.5L15.6758 18.5C15.2617 19.8809 14.6641 20.75 14 20.75ZM15.7539 21.293C16.3164 20.6348 16.7969 19.6699 17.1445 18.5L20 18.5C19.4766 19.1973 18.8477 19.7871 18.1211 20.2656C17.3906 20.7461 16.6016 21.0879 15.7539 21.293Z" fill-rule="evenodd" fill="url(#paint_linear_10_1034_0)"/>
	</g>
	<defs>
		<clipPath id="clip10_1031">
			<rect id="svg" width="18.000000" height="18.000000" transform="translate(5.000000 5.000000)" fill="white"/>
		</clipPath>
		<linearGradient id="paint_linear_10_1034_0" x1="21.411772" y1="18.235292" x2="9.235291" y2="7.117647" gradientUnits="userSpaceOnUse">
			<stop stop-color="#3B6CFE"/>
			<stop offset="1.000000" stop-color="#76A4FF"/>
		</linearGradient>
	</defs>
</svg>
