<svg width="16.000000" height="16.000000" viewBox="0 0 16 16" fill="none" xmlns="http://www.w3.org/2000/svg" xmlns:xlink="http://www.w3.org/1999/xlink">
	<desc>
			Created with Pixso.
	</desc>
	<g clip-path="url(#clip11_2052)">
		<path id="path" d="M14.8242 5.1875C14.4414 4.2793 13.9023 3.47852 13.2031 2.7832C12.8516 2.43164 12.4688 2.11719 12.0586 1.83984C11.6445 1.56445 11.207 1.33008 10.75 1.14062C10.2891 0.951172 9.81641 0.806641 9.32812 0.710938C8.83984 0.613281 8.34766 0.566406 7.85156 0.566406C7.35547 0.566406 6.86328 0.613281 6.375 0.710938C5.88672 0.806641 5.41406 0.951172 4.95703 1.14062C4.49609 1.33008 4.05859 1.56445 3.64844 1.83984C3.23438 2.11719 2.85156 2.43164 2.5 2.7832C1.80469 3.47852 1.26172 4.2793 0.878906 5.1875C0.480469 6.12891 0.28125 7.11133 0.285156 8.13477C0.285156 8.63086 0.332031 9.12305 0.429688 9.61133C0.527344 10.0977 0.667969 10.5723 0.859375 11.0312C1.05078 11.4902 1.28125 11.9258 1.55859 12.3398C1.83594 12.752 2.14844 13.1348 2.5 13.4844C3.19922 14.1836 4 14.7227 4.90625 15.1055C5.84766 15.5059 6.83203 15.7031 7.85156 15.7012C8.875 15.7012 9.86719 15.5 10.7969 15.1055C11.707 14.7227 12.5078 14.1836 13.2031 13.4844C13.9023 12.7891 14.4414 11.9883 14.8242 11.0801C15.2227 10.1387 15.4219 9.15625 15.4219 8.13477C15.4219 7.11133 15.2188 6.12109 14.8242 5.1875Z" fill-rule="nonzero" fill="#FFFFFF"/>
		<path id="path" d="M13.5586 2.42969L13.5547 2.42969C13.1836 2.05469 12.7773 1.7207 12.3359 1.42578C11.8945 1.13086 11.4297 0.880859 10.9414 0.679688C10.4492 0.476562 9.94531 0.322266 9.42578 0.220703C8.90625 0.117188 8.38281 0.0664062 7.85156 0.0664062C7.32422 0.0664062 6.79688 0.117188 6.27734 0.220703C5.75781 0.322266 5.25391 0.476562 4.76562 0.677734C4.27344 0.880859 3.80859 1.13086 3.37109 1.42578C2.92969 1.7207 2.51953 2.05469 2.14844 2.42969C1.40234 3.17188 0.828125 4.02539 0.417969 4.99414C-0.00390625 5.99805 -0.21875 7.04492 -0.214844 8.13477C-0.214844 8.66406 -0.164062 9.18945 -0.0625 9.70898C0.0429688 10.2285 0.195312 10.7324 0.398438 11.2227C0.601562 11.7129 0.847656 12.1777 1.14453 12.6172C1.4375 13.0586 1.77344 13.4648 2.14844 13.8398C2.89062 14.582 3.74609 15.1582 4.71094 15.5664C5.71484 15.9922 6.76172 16.2031 7.85547 16.2012C8.94531 16.2012 9.99219 15.9902 10.9922 15.5664C11.9609 15.1582 12.8164 14.582 13.5586 13.8379C14.3008 13.0977 14.8789 12.2422 15.2852 11.2754C15.7109 10.2715 15.9219 9.22461 15.9219 8.13281C15.9219 7.04102 15.707 5.99414 15.2852 4.99219C14.8789 4.02539 14.3008 3.17188 13.5586 2.42969ZM14.8242 5.1875C14.4414 4.2793 13.9023 3.47852 13.2031 2.7832C12.8516 2.43164 12.4688 2.11719 12.0586 1.83984C11.6445 1.56445 11.207 1.33008 10.75 1.14062C10.2891 0.951172 9.81641 0.806641 9.32812 0.710938C8.83984 0.613281 8.34766 0.566406 7.85156 0.566406C7.35547 0.566406 6.86328 0.613281 6.375 0.710938C5.88672 0.806641 5.41406 0.951172 4.95703 1.14062C4.49609 1.33008 4.05859 1.56445 3.64844 1.83984C3.23438 2.11719 2.85156 2.43164 2.5 2.7832C1.80469 3.47852 1.26172 4.2793 0.878906 5.1875C0.480469 6.12891 0.28125 7.11133 0.285156 8.13477C0.285156 8.63086 0.332031 9.12305 0.429688 9.61133C0.527344 10.0977 0.667969 10.5723 0.859375 11.0312C1.05078 11.4902 1.28125 11.9258 1.55859 12.3398C1.83594 12.752 2.14844 13.1348 2.5 13.4844C3.19922 14.1836 4 14.7227 4.90625 15.1055C5.84766 15.5059 6.83203 15.7031 7.85156 15.7012C8.875 15.7012 9.86719 15.5 10.7969 15.1055C11.707 14.7227 12.5078 14.1836 13.2031 13.4844C13.9023 12.7891 14.4414 11.9883 14.8242 11.0801C15.2227 10.1387 15.4219 9.15625 15.4219 8.13477C15.4219 7.11133 15.2188 6.12109 14.8242 5.1875Z" fill-rule="evenodd" fill="#DCDCDC"/>
		<path id="path" d="M13 8.00195C13 5.23828 10.7617 3 8 3C5.23828 3.00195 3 5.24023 3 8.00195C3 10.7617 5.23828 13 8.00391 13C10.7617 13 13 10.7617 13 8.00195Z" fill-rule="nonzero" fill="#EB0000"/>
	</g>
	<defs>
		<clipPath id="clip11_2052">
			<rect id="svg日本" width="16.000000" height="16.000000" fill="white"/>
		</clipPath>
	</defs>
</svg>
